<?xml version="1.0" standalone="no"?>
<!DOCTYPE svg PUBLIC "-//W3C//DTD SVG 20010904//EN"
 "http://www.w3.org/TR/2001/REC-SVG-20010904/DTD/svg10.dtd">
<svg version="1.0" xmlns="http://www.w3.org/2000/svg"
 width="16.000000pt" height="16.000000pt" viewBox="0 0 16.000000 16.000000"
 preserveAspectRatio="xMidYMid meet">

<g transform="translate(0.000000,16.000000) scale(0.100000,-0.100000)"
fill="#000000" stroke="none">
<path d="M0 121 c0 -29 4 -40 19 -44 27 -7 25 -56 -3 -67 -14 -6 5 -9 62 -9
l82 -1 0 35 c0 44 -17 46 -23 3 l-4 -33 -1 33 c-2 42 -20 42 -25 0 -4 -32 -4
-32 -5 5 -2 35 0 37 28 37 28 0 30 2 30 40 l0 40 -80 0 -80 0 0 -39z m85 -51
c3 -6 -1 -7 -9 -4 -12 5 -16 -1 -16 -21 0 -22 3 -26 18 -20 13 5 14 3 5 -6
-16 -16 -33 -3 -33 25 0 33 21 49 35 26z"/>
<path d="M10 60 c0 -5 5 -10 10 -10 6 0 10 5 10 10 0 6 -4 10 -10 10 -5 0 -10
-4 -10 -10z"/>
<path d="M10 30 c0 -5 5 -10 10 -10 6 0 10 5 10 10 0 6 -4 10 -10 10 -5 0 -10
-4 -10 -10z"/>
</g>
</svg>
