<?xml version="1.0" encoding="UTF-8" standalone="no" ?>
<!DOCTYPE svg PUBLIC "-//W3C//DTD SVG 1.1//EN" "http://www.w3.org/Graphics/SVG/1.1/DTD/svg11.dtd">
<svg xmlns="http://www.w3.org/2000/svg" xmlns:xlink="http://www.w3.org/1999/xlink" version="1.1" width="1080"
	height="1080" viewBox="0 0 1080 1080" xml:space="preserve">
	<g transform="matrix(1 0 0 1 540 540)" id="1798612c-4d2b-44bb-9145-5d76b3227f1e">
		<rect
			style="stroke: none; stroke-width: 1; stroke-dasharray: none; stroke-linecap: butt; stroke-dashoffset: 0; stroke-linejoin: miter; stroke-miterlimit: 4; fill: rgb(255,255,255); fill-rule: nonzero; opacity: 1; visibility: hidden;"
			vector-effect="non-scaling-stroke" x="-540" y="-540" rx="0" ry="0" width="1080" height="1080" />
	</g>
	<g transform="matrix(1 0 0 1 540 540)" id="c4df14ba-a556-4ed1-a5d0-eee4b8949fe1">
	</g>
	<g transform="matrix(1 0 0 1 540 540)">
		<g style="" vector-effect="non-scaling-stroke">
			<g transform="matrix(0.1 0 0 -0.1 0.28 -77.44)">
				<path
					style="stroke: none; stroke-width: 1; stroke-dasharray: none; stroke-linecap: butt; stroke-dashoffset: 0; stroke-linejoin: miter; stroke-miterlimit: 4; fill: rgb(0,0,0); fill-rule: nonzero; opacity: 1;"
					vector-effect="non-scaling-stroke" transform=" translate(-2248.47, -5913.81)"
					d="M 2075 7235 C 1767 7192 1505 7060 1290 6840 C 1104 6650 990 6438 940 6187 C 912 6047 912 5802 940 5659 C 1018 5265 1294 4900 1649 4720 C 1736 4677 1872 4626 1945 4611 C 1978 4604 2024 4594 2047 4589 C 2115 4574 2395 4578 2480 4595 C 2521 4604 2570 4613 2588 4617 C 2607 4620 2620 4628 2618 4636 C 2616 4643 2529 4740 2424 4852 C 2319 4963 2217 5073 2197 5096 C 2167 5130 2149 5140 2093 5154 C 2055 5164 2017 5175 2008 5181 C 1998 5186 1985 5190 1980 5190 C 1974 5190 1943 5202 1912 5217 C 1546 5388 1375 5828 1526 6209 C 1604 6405 1776 6575 1972 6648 C 2039 6673 2185 6700 2255 6700 C 2331 6700 2461 6674 2537 6644 C 2770 6551 2925 6379 3001 6129 C 3019 6068 3023 6032 3023 5920 C 3022 5767 3001 5668 2945 5561 L 2929 5529 L 3122 5332 C 3228 5224 3318 5134 3322 5132 C 3332 5127 3394 5227 3446 5329 C 3542 5522 3585 5724 3577 5950 C 3571 6113 3562 6169 3515 6322 C 3451 6526 3345 6704 3195 6854 C 3019 7031 2822 7142 2574 7204 C 2393 7250 2245 7259 2075 7235 z"
					stroke-linecap="round" />
			</g>
			<g transform="matrix(0.1 0 0 -0.1 68.44 5.85)">
				<path
					style="stroke: none; stroke-width: 1; stroke-dasharray: none; stroke-linecap: butt; stroke-dashoffset: 0; stroke-linejoin: miter; stroke-miterlimit: 4; fill: rgb(0,0,0); fill-rule: nonzero; opacity: 1;"
					vector-effect="non-scaling-stroke" transform=" translate(-2930.03, -5080.88)"
					d="M 2449 5423 L 2290 5265 L 2347 5205 C 2378 5172 2473 5071 2559 4980 C 2644 4889 2764 4764 2825 4703 L 2935 4590 L 3250 4589 C 3423 4589 3567 4590 3570 4593 C 3575 4598 3275 4914 2973 5220 C 2868 5327 2751 5448 2714 5488 C 2676 5529 2637 5566 2627 5571 C 2612 5580 2585 5558 2449 5423 z"
					stroke-linecap="round" />
			</g>
			<g transform="matrix(0.1 0 0 -0.1 -54.71 161.91)">
				<path
					style="stroke: none; stroke-width: 1; stroke-dasharray: none; stroke-linecap: butt; stroke-dashoffset: 0; stroke-linejoin: miter; stroke-miterlimit: 4; fill: rgb(0,0,0); fill-rule: nonzero; opacity: 1;"
					vector-effect="non-scaling-stroke" transform=" translate(-1698.56, -3520.36)"
					d="M 1605 3991 C 1519 3965 1470 3938 1407 3880 C 1346 3825 1317 3778 1281 3683 C 1260 3628 1258 3608 1262 3503 C 1266 3393 1268 3380 1301 3310 C 1392 3117 1565 3019 1790 3033 C 1888 3039 1960 3066 2037 3125 C 2091 3166 2144 3226 2136 3237 C 2134 3242 2094 3265 2048 3289 L 1965 3332 L 1926 3296 C 1873 3245 1831 3230 1743 3230 C 1685 3230 1659 3235 1622 3254 C 1558 3287 1535 3311 1499 3382 C 1470 3439 1468 3449 1472 3534 C 1477 3668 1512 3730 1610 3782 C 1647 3801 1670 3805 1740 3805 C 1836 3805 1894 3782 1940 3727 L 1966 3697 L 2005 3723 C 2087 3777 2124 3805 2128 3818 C 2134 3837 2040 3925 1982 3954 C 1871 4010 1721 4025 1605 3991 z"
					stroke-linecap="round" />
			</g>
			<g transform="matrix(0.1 0 0 -0.1 57.47 161.96)">
				<path
					style="stroke: none; stroke-width: 1; stroke-dasharray: none; stroke-linecap: butt; stroke-dashoffset: 0; stroke-linejoin: miter; stroke-miterlimit: 4; fill: rgb(0,0,0); fill-rule: nonzero; opacity: 1;"
					vector-effect="non-scaling-stroke" transform=" translate(-2820.37, -3519.82)"
					d="M 2693 3995 C 2510 3945 2361 3795 2329 3627 C 2315 3553 2318 3452 2335 3385 C 2379 3216 2538 3072 2715 3039 C 2812 3021 2947 3034 3024 3069 C 3170 3135 3263 3237 3306 3379 C 3329 3455 3324 3617 3297 3692 C 3256 3805 3169 3901 3055 3957 C 2956 4007 2798 4023 2693 3995 z M 2930 3793 C 2998 3771 3071 3700 3094 3634 C 3114 3574 3115 3467 3095 3409 C 3075 3350 3030 3297 2972 3263 C 2933 3240 2912 3235 2835 3232 C 2752 3228 2738 3230 2687 3254 C 2627 3283 2592 3318 2557 3384 C 2540 3417 2536 3442 2535 3520 C 2535 3606 2538 3619 2562 3662 C 2637 3788 2784 3840 2930 3793 z"
					stroke-linecap="round" />
			</g>
			<g transform="matrix(0.1 0 0 -0.1 -161.75 161.99)">
				<path
					style="stroke: none; stroke-width: 1; stroke-dasharray: none; stroke-linecap: butt; stroke-dashoffset: 0; stroke-linejoin: miter; stroke-miterlimit: 4; fill: rgb(0,0,0); fill-rule: nonzero; opacity: 1;"
					vector-effect="non-scaling-stroke" transform=" translate(-628.17, -3519.54)"
					d="M 450 3986 C 246 3929 113 3771 93 3563 C 83 3452 118 3335 197 3228 C 308 3075 551 3009 740 3081 L 793 3101 L 824 3071 L 856 3040 L 1010 3040 L 1165 3040 L 1085 3120 C 1010 3194 1002 3200 962 3200 C 921 3200 914 3205 796 3320 C 728 3386 669 3440 664 3440 C 660 3440 632 3417 603 3388 L 550 3336 L 607 3278 C 638 3246 662 3218 659 3215 C 656 3212 633 3207 608 3204 C 547 3195 441 3228 378 3275 C 288 3341 235 3479 259 3585 C 276 3661 297 3698 352 3752 C 503 3899 753 3856 853 3665 C 882 3611 883 3472 856 3421 L 838 3387 L 891 3334 C 920 3304 948 3280 952 3280 C 963 3280 999 3353 1016 3409 C 1038 3481 1034 3628 1009 3697 C 967 3809 881 3908 784 3955 C 694 3998 544 4012 450 3986 z"
					stroke-linecap="round" />
			</g>
			<g transform="matrix(0.1 0 0 -0.1 173.73 162.36)">
				<path
					style="stroke: none; stroke-width: 1; stroke-dasharray: none; stroke-linecap: butt; stroke-dashoffset: 0; stroke-linejoin: miter; stroke-miterlimit: 4; fill: rgb(0,0,0); fill-rule: nonzero; opacity: 1;"
					vector-effect="non-scaling-stroke" transform=" translate(-3982.95, -3515.81)"
					d="M 3567 3985 C 3565 3980 3566 3765 3568 3508 L 3572 3040 L 3676 3040 L 3780 3040 L 3782 3330 L 3785 3619 L 4000 3332 L 4215 3045 L 4308 3042 L 4400 3039 L 4400 3515 L 4400 3990 L 4300 3990 L 4200 3990 L 4198 3694 L 4195 3398 L 4121 3497 C 4080 3551 4004 3651 3952 3720 C 3900 3789 3847 3859 3834 3875 C 3821 3892 3797 3924 3781 3947 L 3751 3989 L 3661 3992 C 3606 3994 3569 3991 3567 3985 z"
					stroke-linecap="round" />
			</g>
		</g>
	</g>
</svg>