<?xml version="1.0" standalone="no"?>
<!DOCTYPE svg PUBLIC "-//W3C//DTD SVG 20010904//EN" "http://www.w3.org/TR/2001/REC-SVG-20010904/DTD/svg10.dtd">
<svg version="1.0" xmlns="http://www.w3.org/2000/svg">
    <g transform="translate(0.000000,735.000000) scale(0.100000,-0.100000)" fill="#000000">
        <path d="M2075 7235 c-308 -43 -570 -175 -785 -395 -186 -190 -300 -402 -350
-653 -28 -140 -28 -385 0 -528 78 -394 354 -759 709 -939 87 -43 223 -94 296
-109 33 -7 79 -17 102 -22 68 -15 348 -11 433 6 41 9 90 18 108 22 19 3 32 11
30 19 -2 7 -89 104 -194 216 -105 111 -207 221 -227 244 -30 34 -48 44 -104
58 -38 10 -76 21 -85 27 -10 5 -23 9 -28 9 -6 0 -37 12 -68 27 -366 171 -537
611 -386 992 78 196 250 366 446 439 67 25 213 52 283 52 76 0 206 -26 282
-56 233 -93 388 -265 464 -515 18 -61 22 -97 22 -209 -1 -153 -22 -252 -78
-359 l-16 -32 193 -197 c106 -108 196 -198 200 -200 10 -5 72 95 124 197 96
193 139 395 131 621 -6 163 -15 219 -62 372 -64 204 -170 382 -320 532 -176
177 -373 288 -621 350 -181 46 -329 55 -499 31z" />
        <path d="M2449 5423 l-159 -158 57 -60 c31 -33 126 -134 212 -225 85 -91 205
-216 266 -277 l110 -113 315 -1 c173 0 317 1 320 4 5 5 -295 321 -597 627
-105 107 -222 228 -259 268 -38 41 -77 78 -87 83 -15 9 -42 -13 -178 -148z" />
        <path d="M1605 3991 c-86 -26 -135 -53 -198 -111 -61 -55 -90 -102 -126 -197
-21 -55 -23 -75 -19 -180 4 -110 6 -123 39 -193 91 -193 264 -291 489 -277 98
6 170 33 247 92 54 41 107 101 99 112 -2 5 -42 28 -88 52 l-83 43 -39 -36
c-53 -51 -95 -66 -183 -66 -58 0 -84 5 -121 24 -64 33 -87 57 -123 128 -29 57
-31 67 -27 152 5 134 40 196 138 248 37 19 60 23 130 23 96 0 154 -23 200 -78
l26 -30 39 26 c82 54 119 82 123 95 6 19 -88 107 -146 136 -111 56 -261 71
-377 37z" />
        <path d="M2693 3995 c-183 -50 -332 -200 -364 -368 -14 -74 -11 -175 6 -242
44 -169 203 -313 380 -346 97 -18 232 -5 309 30 146 66 239 168 282 310 23 76
18 238 -9 313 -41 113 -128 209 -242 265 -99 50 -257 66 -362 38z m237 -202
c68 -22 141 -93 164 -159 20 -60 21 -167 1 -225 -20 -59 -65 -112 -123 -146
-39 -23 -60 -28 -137 -31 -83 -4 -97 -2 -148 22 -60 29 -95 64 -130 130 -17
33 -21 58 -22 136 0 86 3 99 27 142 75 126 222 178 368 131z" />
        <path d="M450 3986 c-204 -57 -337 -215 -357 -423 -10 -111 25 -228 104 -335
111 -153 354 -219 543 -147 l53 20 31 -30 32 -31 154 0 155 0 -80 80 c-75 74
-83 80 -123 80 -41 0 -48 5 -166 120 -68 66 -127 120 -132 120 -4 0 -32 -23
-61 -52 l-53 -52 57 -58 c31 -32 55 -60 52 -63 -3 -3 -26 -8 -51 -11 -61 -9
-167 24 -230 71 -90 66 -143 204 -119 310 17 76 38 113 93 167 151 147 401
104 501 -87 29 -54 30 -193 3 -244 l-18 -34 53 -53 c29 -30 57 -54 61 -54 11
0 47 73 64 129 22 72 18 219 -7 288 -42 112 -128 211 -225 258 -90 43 -240 57
-334 31z" />
        <path d="M3567 3985 c-2 -5 -1 -220 1 -477 l4 -468 104 0 104 0 2 290 3 289
215 -287 215 -287 93 -3 92 -3 0 476 0 475 -100 0 -100 0 -2 -296 -3 -296 -74
99 c-41 54 -117 154 -169 223 -52 69 -105 139 -118 155 -13 17 -37 49 -53 72
l-30 42 -90 3 c-55 2 -92 -1 -94 -7z" />
    </g>
</svg>