<svg version="1.0" xmlns="http://www.w3.org/2000/svg"><path d="M207.5 11.5C176.7 15.8 150.5 29 129 51c-18.6 19-30 40.2-35 65.3-2.8 14-2.8 38.5 0 52.8 7.8 39.4 35.4 75.9 70.9 93.9 8.7 4.3 22.3 9.4 29.6 10.9 3.3.7 7.9 1.7 10.2 2.2 6.8 1.5 34.8 1.1 43.3-.6 4.1-.9 9-1.8 10.8-2.2 1.9-.3 3.2-1.1 3-1.9-.2-.7-8.9-10.4-19.4-21.6-10.5-11.1-20.7-22.1-22.7-24.4-3-3.4-4.8-4.4-10.4-5.8-3.8-1-7.6-2.1-8.5-2.7-1-.5-2.3-.9-2.8-.9-.6 0-3.7-1.2-6.8-2.7-36.6-17.1-53.7-61.1-38.6-99.2 7.8-19.6 25-36.6 44.6-43.9 6.7-2.5 21.3-5.2 28.3-5.2 7.6 0 20.6 2.6 28.2 5.6 23.3 9.3 38.8 26.5 46.4 51.5 1.8 6.1 2.2 9.7 2.2 20.9-.1 15.3-2.2 25.2-7.8 35.9l-1.6 3.2 19.3 19.7c10.6 10.8 19.6 19.8 20 20 1 .5 7.2-9.5 12.4-19.7 9.6-19.3 13.9-39.5 13.1-62.1-.6-16.3-1.5-21.9-6.2-37.2-6.4-20.4-17-38.2-32-53.2-17.6-17.7-37.3-28.8-62.1-35-18.1-4.6-32.9-5.5-49.9-3.1z"/><path d="M244.9 192.7 229 208.5l5.7 6c3.1 3.3 12.6 13.4 21.2 22.5 8.5 9.1 20.5 21.6 26.6 27.7l11 11.3 31.5.1c17.3 0 31.7-.1 32-.4.5-.5-29.5-32.1-59.7-62.7-10.5-10.7-22.2-22.8-25.9-26.8-3.8-4.1-7.7-7.8-8.7-8.3-1.5-.9-4.2 1.3-17.8 14.8zM160.5 335.9c-8.6 2.6-13.5 5.3-19.8 11.1-6.1 5.5-9 10.2-12.6 19.7-2.1 5.5-2.3 7.5-1.9 18 .4 11 .6 12.3 3.9 19.3 9.1 19.3 26.4 29.1 48.9 27.7 9.8-.6 17-3.3 24.7-9.2 5.4-4.1 10.7-10.1 9.9-11.2-.2-.5-4.2-2.8-8.8-5.2l-8.3-4.3-3.9 3.6c-5.3 5.1-9.5 6.6-18.3 6.6-5.8 0-8.4-.5-12.1-2.4-6.4-3.3-8.7-5.7-12.3-12.8-2.9-5.7-3.1-6.7-2.7-15.2.5-13.4 4-19.6 13.8-24.8 3.7-1.9 6-2.3 13-2.3 9.6 0 15.4 2.3 20 7.8l2.6 3 3.9-2.6c8.2-5.4 11.9-8.2 12.3-9.5.6-1.9-8.8-10.7-14.6-13.6-11.1-5.6-26.1-7.1-37.7-3.7zM269.3 335.5c-18.3 5-33.2 20-36.4 36.8-1.4 7.4-1.1 17.5.6 24.2 4.4 16.9 20.3 31.3 38 34.6 9.7 1.8 23.2.5 30.9-3 14.6-6.6 23.9-16.8 28.2-31 2.3-7.6 1.8-23.8-.9-31.3-4.1-11.3-12.8-20.9-24.2-26.5-9.9-5-25.7-6.6-36.2-3.8zm23.7 20.2c6.8 2.2 14.1 9.3 16.4 15.9 2 6 2.1 16.7.1 22.5-2 5.9-6.5 11.2-12.3 14.6-3.9 2.3-6 2.8-13.7 3.1-8.3.4-9.7.2-14.8-2.2-6-2.9-9.5-6.4-13-13-1.7-3.3-2.1-5.8-2.2-13.6 0-8.6.3-9.9 2.7-14.2 7.5-12.6 22.2-17.8 36.8-13.1zM45 336.4c-20.4 5.7-33.7 21.5-35.7 42.3-1 11.1 2.5 22.8 10.4 33.5 11.1 15.3 35.4 21.9 54.3 14.7l5.3-2 3.1 3 3.2 3.1h30.9l-8-8c-7.5-7.4-8.3-8-12.3-8-4.1 0-4.8-.5-16.6-12-6.8-6.6-12.7-12-13.2-12-.4 0-3.2 2.3-6.1 5.2l-5.3 5.2 5.7 5.8c3.1 3.2 5.5 6 5.2 6.3-.3.3-2.6.8-5.1 1.1-6.1.9-16.7-2.4-23-7.1-9-6.6-14.3-20.4-11.9-31 1.7-7.6 3.8-11.3 9.3-16.7 15.1-14.7 40.1-10.4 50.1 8.7 2.9 5.4 3 19.3.3 24.4l-1.8 3.4 5.3 5.3c2.9 3 5.7 5.4 6.1 5.4 1.1 0 4.7-7.3 6.4-12.9 2.2-7.2 1.8-21.9-.7-28.8-4.2-11.2-12.8-21.1-22.5-25.8-9-4.3-24-5.7-33.4-3.1zM356.7 336.5c-.2.5-.1 22 .1 47.7l.4 46.8H378l.2-29 .3-28.9 21.5 28.7 21.5 28.7 9.3.3 9.2.3V336h-20l-.2 29.6-.3 29.6-7.4-9.9c-4.1-5.4-11.7-15.4-16.9-22.3-5.2-6.9-10.5-13.9-11.8-15.5-1.3-1.7-3.7-4.9-5.3-7.2l-3-4.2-9-.3c-5.5-.2-9.2.1-9.4.7z"/></svg>