<svg xmlns="http://www.w3.org/2000/svg" viewBox="375 375 300 300">
  <path vector-effect="non-scaling-stroke" d="M530.966 475.896c-8.778 1.225-16.245 4.988-22.372 11.258-5.301 5.415-8.55 11.457-9.975 18.611-.798 3.99-.798 10.973 0 15.048 2.223 11.229 10.089 21.63 20.205 26.76 2.481 1.227 6.357 2.68 8.438 3.108l2.907.627c1.938.427 9.918.314 12.341-.171l3.078-.627c.54-.086.912-.315.855-.541-.057-.2-2.537-2.964-5.529-6.156l-6.47-6.954c-.855-.969-1.368-1.254-2.964-1.653-1.083-.285-2.166-.6-2.422-.77-.285-.143-.655-.257-.798-.257-.171 0-1.054-.342-1.938-.77-10.431-4.875-15.304-17.415-11.001-28.272 2.223-5.586 7.125-10.431 12.711-12.511 1.909-.712 6.07-1.482 8.066-1.482 2.166 0 5.871.741 8.037 1.596 6.64 2.651 11.058 7.553 13.224 14.678.513 1.739.627 2.764.627 5.955-.03 4.362-.627 7.183-2.223 10.233l-.456.912 5.5 5.614 5.7 5.7c.285.143 2.052-2.708 3.534-5.614 2.736-5.5 3.96-11.258 3.733-17.7-.171-4.644-.427-6.24-1.767-10.601-1.824-5.814-4.845-10.887-9.12-15.162-5.016-5.045-10.63-8.208-17.7-9.975-5.157-1.311-9.375-1.567-14.22-.885m10.659 51.642-4.531 4.503 1.624 1.71 6.042 6.413 7.581 7.894 3.135 3.22 8.978.028 9.12-.114c.143-.143-8.408-9.15-17.014-17.87l-7.382-7.638c-1.083-1.17-2.195-2.223-2.479-2.365-.427-.257-1.197.37-5.073 4.218m-24.056 40.814c-2.451.741-3.848 1.51-5.643 3.163-1.74 1.567-2.565 2.907-3.591 5.614-.6 1.567-.655 2.138-.541 5.13.114 3.135.171 3.506 1.11 5.5 2.595 5.5 7.526 8.293 13.938 7.894 2.793-.171 4.845-.941 7.039-2.622 1.539-1.17 3.05-2.88 2.82-3.192-.055-.143-1.196-.798-2.506-1.482l-2.365-1.225-1.111 1.026c-1.51 1.454-2.708 1.881-5.215 1.881-1.653 0-2.394-.143-3.45-.684-1.823-.941-2.478-1.624-3.504-3.648-.827-1.624-.885-1.909-.77-4.332.143-3.819 1.14-5.586 3.933-7.068 1.054-.541 1.71-.655 3.705-.655 2.736 0 4.389.655 5.7 2.223l.741.855 1.11-.741c2.338-1.539 3.393-2.337 3.507-2.708.171-.541-2.508-3.05-4.161-3.876-3.165-1.596-7.44-2.025-10.745-1.054m31.008-.114c-5.215 1.425-9.462 5.7-10.374 10.488-.399 2.109-.315 4.988.171 6.897 1.254 4.815 5.786 8.921 10.83 9.861 2.764.513 6.612.143 8.805-.855 4.162-1.881 6.813-4.788 8.038-8.835.655-2.166.513-6.783-.257-8.921-1.17-3.22-3.648-5.957-6.897-7.553-2.821-1.425-7.325-1.881-10.317-1.083m6.755 5.757c1.938.627 4.018 2.651 4.674 4.53.57 1.71.599 4.761.028 6.414-.57 1.68-1.853 3.192-3.506 4.161-1.111.655-1.71.798-3.905.883-2.365.114-2.764.057-4.218-.627-1.71-.827-2.708-1.824-3.705-3.705-.485-.941-.6-1.653-.627-3.876 0-2.451.086-2.821.77-4.047 2.138-3.591 6.327-5.073 10.488-3.735m-70.68-5.5c-5.814 1.624-9.604 6.127-10.175 12.056-.285 3.163.712 6.498 2.964 9.547 3.163 4.361 10.089 6.24 15.476 4.19l1.51-.57.883.855.912.883h8.805l-2.28-2.28c-2.136-2.109-2.364-2.28-3.504-2.28-1.17 0-1.368-.143-4.731-3.42-1.938-1.881-3.619-3.42-3.762-3.42-.114 0-.912.655-1.74 1.482l-1.509 1.482 1.624 1.653c.883.912 1.567 1.71 1.482 1.796s-.741.228-1.455.314c-1.737.255-4.758-.684-6.555-2.025-2.565-1.879-4.074-5.813-3.39-8.835.485-2.165 1.083-3.219 2.651-4.758 4.304-4.19 11.428-2.964 14.279 2.479.825 1.539.855 5.5.086 6.954l-.513.969 1.51 1.51c.825.855 1.624 1.539 1.739 1.539.314 0 1.34-2.08 1.824-3.676.627-2.052.513-6.241-.2-8.208-1.197-3.192-3.648-6.015-6.413-7.353-2.565-1.225-6.84-1.624-9.519-.885m88.834.028c-.057.143-.03 6.27.028 13.595l.114 13.338h5.928l.057-8.265.086-8.236 6.127 8.18 6.127 8.18 2.651.086 2.622.086v-27.105h-5.7l-.057 8.438-.086 8.436-2.109-2.821-4.816-6.356-3.363-4.417a66 66 0 0 1-1.51-2.052l-.855-1.197-2.565-.086c-1.567-.057-2.622.028-2.679.2"/>
</svg>
